/* XPM */
static char * go_xpm[] = {
"48 48 7 1",
" 	c None",
".	c #949594",
"+	c #318100",
"@	c #FFFFFF",
"#	c #000000",
"$	c #F6FF10",
"%	c #004701",
"................................................",
".+++++@@+@+@.+@+@@+++++++++++++++++++++.@@+.@+@.",
".##$$+@@@+@+.@@+@@+++++++++++++++++++++.@@+.+@+.",
".##$$+@+@+@+.+@++++++++++++++++++++++++.+++.@+@.",
"................................................",
"################################################",
"@@@@@@@@@@@@@@@@@@@@@@@@@@@@@@@@@@@@@@@@@@@@@@@@",
"@@@@@@@@@@@@@@@@@@@@@@@@@@@@@@@@@@@@@@@@@@@@@@@@",
"@@++%++%++%++%++%++%++%++%++%++%++%++%++%++%++@@",
"@@++%++%++%++%++%++%++%++%++%++%++%++%++%++$++@@",
"@@%%%%%%%%%%%%%%%%%%%%%%%%%%%%%%%%%%%%%%%%$$$%@@",
"@@++%++%++%++%++%++%++%++%++%++%++%++%++%++$++@@",
"@@++%++%++%++%++%++%++%++%++%++%++%+###+%++%++@@",
"@@%%%%%%%%%%%%%%%%%%%%%%%%%%%%%%%%%%###%%%%%%%@@",
"@@++%++%++%++%++%++%++%++%++%++%++%+###+%++%++@@",
"@@++%++%+###+%++%++%++%++%++%++%+###+$+###+%++@@",
"@@%%%%%%%###%%%%%%%%%%%%%%%%%%%%%###$$$###%%%%@@",
"@@++%++%+###+%++%++%++%++%++%++%+###+$+###+%++@@",
"@@++%++$++$++%++%++%++%++%++%++%++$++$+###+%++@@",
"@@%%%%$$$$$$%%%%%%%%%%%%%%%%%%%%%$$$$$$###%%%%@@",
"@@++%++$++$++%++%++%++%++%++%++%++$++$+###+%++@@",
"@@++%++%++%++%++%++%++%++%++%++%++%+######+%++@@",
"@@%%%%%%%%%%%%%%%%%%%%%%%%%%%%%%%%%%######%%%%@@",
"@@++%++%++%++%++%++%++%++%++%++%++%+######+%++@@",
"@@++%++%++%++%++%++%++%++%++%++%++%++%++%++%++@@",
"@@%%%%%%%%%%%%%%%%%%%%%%%%%%%%%%%%%%%%%%%%%%%%@@",
"@@++%++%++%++%++%++%++%++%++%++%++%++%++%++%++@@",
"@@++%++%++%++%++%++%++%++%++%++%++%++%++$++%++@@",
"@@%%%%%%%%%%%%%%%%%%%%%%%%%%%%%%%%%%%%%$$$%%%%@@",
"@@++%++%++%++%++%++%++%++%++%++%++%++%++$++%++@@",
"@@++%++%++%+###+%++%++%++%++%++%++%++%++%++%++@@",
"@@%%%%%%%%%%###%%%%%%%%%%%%%%%%%%%%%%%%%%%%%%%@@",
"@@++%++%++%+###+%++%++%++%++%++%++%++%++%++%++@@",
"@@++%++%++%++%++%++%++%++%++%++%++%++%++%++%++@@",
"@@%%%%%%%%%%%%%%%%%%%%%%%%%%%%%%%%%%%%%%%%%%%%@@",
"@@++%++%++%++%++%++%++%++%++%++%++%++%++%++%++@@",
"@@++%++%++%++%++%++%++%++%++%++%++%++%++%++%++@@",
"@@%%%%%%%%%%%%%%%%%%%%%%%%%%%%%%%%%%%%%%%%%%%%@@",
"@@++%++%++%++%++%++%++%++%++%++%++%++%++%++%++@@",
"@@++%++%++%++%++%++%++%++%++%++%++%++%++%++%++@@",
"@@%%%%%%%%%%%%%%%%%%%%%%%%%%%%%%%%%%%%%%%%%%%%@@",
"@@++%++%++%++%++%++%++%++%++%++%++%++%++%++%++@@",
"@@++%++%++%++%++%++%++%++%++%++%++%++%++%++%++@@",
"@@%%%%%%%%%%%%%%%%%%%%%%%%%%%%%%%%%%%%%%%%%%%%@@",
"@@++%++%++%++%++%++%++%++%++%++%++%++%++%++%++@@",
"@@++%++%++%++%++%++%++%++%++%++%++%++%++%++%++@@",
"@@@@@@@@@@@@@@@@@@@@@@@@@@@@@@@@@@@@@@@@@@@@@@@@",
"@@@@@@@@@@@@@@@@@@@@@@@@@@@@@@@@@@@@@@@@@@@@@@@@"};
