/* XPM */
static char * gtkgoico_xpm[] = {
"32 32 163 2",
"  	c None",
". 	c #889184",
"+ 	c #728A63",
"@ 	c #7B9263",
"# 	c #879B76",
"$ 	c #A9AFA5",
"% 	c #99A692",
"& 	c #93A28A",
"* 	c #A0AA9A",
"= 	c #90978C",
"- 	c #96A48E",
"; 	c #95A48D",
"> 	c #829876",
", 	c #738E63",
"' 	c #788F6B",
") 	c #9BA098",
"! 	c #909B8A",
"~ 	c #9AA395",
"{ 	c #98A590",
"] 	c #9A9D98",
"^ 	c #697463",
"/ 	c #2C4C02",
"( 	c #86AD07",
"_ 	c #91BD3D",
": 	c #C3DAB5",
"< 	c #B9D4A9",
"[ 	c #9BC283",
"} 	c #8EBA73",
"| 	c #B0CE9D",
"1 	c #8CB972",
"2 	c #B7D3A5",
"3 	c #57982F",
"4 	c #318100",
"5 	c #418419",
"6 	c #9CAE91",
"7 	c #80A16D",
"8 	c #92B27F",
"9 	c #99C182",
"0 	c #676867",
"a 	c #404227",
"b 	c #A3AC2D",
"c 	c #9BB14F",
"d 	c #86A274",
"e 	c #9EB193",
"f 	c #92AA84",
"g 	c #6C9254",
"h 	c #838F7C",
"i 	c #90A981",
"j 	c #689050",
"k 	c #618C46",
"l 	c #4D802E",
"m 	c #467B25",
"n 	c #517E35",
"o 	c #728965",
"p 	c #698658",
"q 	c #8FA284",
"r 	c #8EA87F",
"s 	c #90978D",
"t 	c #767776",
"u 	c #C6C6C6",
"v 	c #F7FAF6",
"w 	c #ABCC97",
"x 	c #6DA155",
"y 	c #689B55",
"z 	c #699C56",
"A 	c #79A856",
"B 	c #78A956",
"C 	c #F3F7F1",
"D 	c #76A564",
"E 	c #176200",
"F 	c #125C01",
"G 	c #125D01",
"H 	c #156101",
"I 	c #276C02",
"J 	c #89B508",
"K 	c #82B207",
"L 	c #86B065",
"M 	c #79A864",
"N 	c #1B6600",
"O 	c #155F01",
"P 	c #1A6600",
"Q 	c #246B02",
"R 	c #94BF08",
"S 	c #80B207",
"T 	c #84B164",
"U 	c #1B6700",
"V 	c #156001",
"W 	c #000000",
"X 	c #061300",
"Y 	c #155400",
"Z 	c #76A464",
"` 	c #166201",
" .	c #115C01",
"..	c #155E01",
"+.	c #0E4E01",
"@.	c #0F4E01",
"#.	c #111B01",
"$.	c #172801",
"%.	c #0E4400",
"&.	c #0E4F01",
"*.	c #0F5701",
"=.	c #7AA964",
"-.	c #1B6801",
";.	c #175801",
">.	c #0A2100",
",.	c #166100",
"'.	c #7A9F07",
").	c #799407",
"!.	c #142601",
"~.	c #0B2600",
"{.	c #0F4C01",
"].	c #F2F7F1",
"^.	c #75A364",
"/.	c #115B01",
"(.	c #205E01",
"_.	c #1F3402",
":.	c #172401",
"<.	c #125401",
"[.	c #A3CA09",
"}.	c #9AB409",
"|.	c #161E01",
"1.	c #061700",
"2.	c #0A4401",
"3.	c #85B208",
"4.	c #90B908",
"5.	c #96AF09",
"6.	c #8CA508",
"7.	c #256902",
"8.	c #84A208",
"9.	c #236A01",
"0.	c #81B107",
"a.	c #7DB006",
"b.	c #8CB908",
"c.	c #266F01",
"d.	c #789007",
"e.	c #0F1701",
"f.	c #081900",
"g.	c #0D4701",
"h.	c #176100",
"i.	c #236802",
"j.	c #216901",
"k.	c #226902",
"l.	c #216902",
"m.	c #141A01",
"n.	c #010400",
"o.	c #071800",
"p.	c #0B4401",
"q.	c #0D4601",
"r.	c #206901",
"s.	c #226802",
"t.	c #73A906",
"u.	c #236B01",
"v.	c #0C4901",
"w.	c #145C01",
"x.	c #86B208",
"y.	c #0A2400",
"z.	c #0F4F01",
"A.	c #155E00",
"B.	c #F8FBF6",
"C.	c #B2D0A0",
"D.	c #7AA963",
"E.	c #75A363",
"F.	c #FEFFFE",
". + @ # $ % & * = - ; $ > , , , , , , , , , , , , ' ) $ ! ~ { ] ",
"^ / ( _ : < [ } { | 1 2 3 4 4 4 4 4 4 4 4 4 4 4 4 5 6 2 7 8 9 { ",
"0 a b c d e f g h i j k l m m m m m m m m m m m m n o k p q r s ",
"t t t t t t t t t t t t t t t t t t t t t t t t t t t t t t t t ",
"u u u u u u u u u u u u u u u u u u u u u u u u u u u u u u u u ",
"v w x y y x z x x z x y y x z x x z x y y x z x x z x y A B w v ",
"C D E F F E G H H G E F F E G H H G E F F E G H H G E I J K L C ",
"C M N O O N H P P H N O O N H P P H N O O N H P P H N Q R S T C ",
"C M U V V U H P P H U V V U H P P H U V V U H P W X Y V V U M C ",
"C Z `  . ...+.@.H F `  . .` F H H F `  . ...+.@.#.$.%.&.*.` Z C ",
"C =.-.H H ;.>.X N ,.-.H H -.,.N N ,.-.H H ;.>.X '.).!.~.{.-.=.C ",
"].^.V /.I (._.:.O  .V /./.V  .O O  .V /./.<._.:.[.}.|.1.2.V ^.].",
"].^.H I 3.4.5.6.O  .H /./.H  .O O  .H /./.7.8.6.[.}.|.1.2.H ^.].",
"C =.-.9.0.a.b.S N ` -.V V -.` N N ` -.V V c.K S '.d.e.f.g.-.=.C ",
"C D h.F i.j.k.l.H G h.F F h.G H H G h.F F h.k.l.#.m.n.o.p.h.D C ",
"C M N O O N H P P H N O O N H P P H N O O N H P W W W f.q.N M C ",
"C M U V V U H P P H U V V U H P P H U V V U H P P H N O O U M C ",
"C Z `  . .` F H H F `  . .` F H H F `  . .` F H H F r.s. .` Z C ",
"C =.-.H H -.,.N N ,.-.H H -.,.N N ,.-.H H -.,.N N r.t.0.u.-.=.C ",
"].^.V /./.V  .O q.v.w././.V  .O O  .V /./.V  .O O s.0.x.I V ^.].",
"].^.H /./.H  .O f.y.<././.H  .O O  .H /./.H  .O O  .u.I /.H ^.].",
"C =.-.V V -.` N X >.;.V V -.` N N ` -.V V -.` N N ` -.V V -.=.C ",
"C D h.F F h.G H @.z.A.F F h.G H H G h.F F h.G H H G h.F F h.D C ",
"C M N O O N H P P H N O O N H P P H N O O N H P P H N O O N M C ",
"C M U V V U H P P H U V V U H P P H U V V U H P P H U V V U M C ",
"C Z `  . .` F H H F `  . .` F H H F `  . .` F H H F `  . .` Z C ",
"C =.-.H H -.,.N N ,.-.H H -.,.N N ,.-.H H -.,.N N ,.-.H H -.=.C ",
"].^.V /./.V  .O O  .V /./.V  .O O  .V /./.V  .O O  .V /./.V ^.].",
"].^.H /./.H  .O O  .H /./.H  .O O  .H /./.H  .O O  .H /./.H ^.].",
"C =.-.V V -.` N N ` -.V V -.` N N ` -.V V -.` N N ` -.V V -.=.C ",
"B.C.D.E.E.D.Z M M Z D.E.E.D.Z M M Z D.E.E.D.Z M M Z D.E.E.D.C.B.",
"F.B.C ].].C C C C C C ].].C C C C C C ].].C C C C C C ].].C B.F."};
